<svg width="216" height="216" viewBox="0 0 216 216" fill="none" xmlns="http://www.w3.org/2000/svg">
<g clip-path="url(#clip0)">
<path d="M52.93 32.9243C52.3877 28.1846 55.2332 23.7111 59.7558 22.1931V22.1931C91.0604 11.6857 124.94 11.6857 156.244 22.1931V22.1931C160.767 23.7111 163.612 28.1846 163.07 32.9243L144.779 192.794C144.309 196.897 141.366 200.29 137.37 201.333L133.259 202.406C116.697 206.729 99.3027 206.729 82.7406 202.406L78.6303 201.333C74.6342 200.29 71.6905 196.897 71.2211 192.794L52.93 32.9243Z" stroke="white" stroke-width="2"/>
<path d="M66.5 151V151C77.6044 193.812 138.396 193.812 149.5 151V151" stroke="white" stroke-width="2"/>
<path d="M163 33C163 44.8741 138.376 49 108 49C77.6243 49 53 44.8741 53 33" stroke="white" stroke-width="2"/>
<mask id="mask0" mask-type="alpha" maskUnits="userSpaceOnUse" x="62" y="52" width="92" height="123">
<path d="M62 52C92.3127 58.5897 123.687 58.5897 154 52L142.984 146.557C142.342 152.062 140.084 157.254 136.495 161.477C121.561 179.046 94.4393 179.046 79.5051 161.477C75.9156 157.254 73.6577 152.062 73.0163 146.557L62 52Z" fill="#C4C4C4"/>
</mask>
<g mask="url(#mask0)">
<path d="M33 128H172V176H33V128Z" fill="#C9F8DC"/>
<mask id="mask1" mask-type="alpha" maskUnits="userSpaceOnUse" x="53" y="34" width="108" height="94">
<rect x="53" y="34" width="108" height="94" fill="#64D78E"/>
</mask>
<g mask="url(#mask1)">
<rect x="53" y="34" width="108" height="94" fill="#64D78E"/>
<circle opacity="0.5" cx="139.5" cy="57.5" r="1.5" fill="white"/>
<circle opacity="0.5" cx="145.5" cy="104.5" r="1.5" fill="white"/>
<circle opacity="0.5" cx="98.5" cy="97.5" r="1.5" fill="white"/>
<circle opacity="0.5" cx="94.5" cy="75.5" r="1.5" fill="white"/>
<circle opacity="0.5" cx="93.5" cy="116.5" r="1.5" fill="white"/>
<circle opacity="0.5" cx="81.5" cy="88.5" r="1.5" fill="white"/>
<circle opacity="0.5" cx="125.5" cy="70.5" r="1.5" fill="white"/>
<circle opacity="0.5" cx="131.5" cy="117.5" r="1.5" fill="white"/>
<circle opacity="0.5" cx="78" cy="62" r="2" fill="white"/>
<circle opacity="0.5" cx="152" cy="69" r="2" fill="white"/>
<circle opacity="0.5" cx="112" cy="85" r="2" fill="white"/>
<circle opacity="0.5" cx="128" cy="95" r="2" fill="white"/>
<circle opacity="0.5" cx="110" cy="60" r="3" fill="white"/>
<circle opacity="0.5" cx="116" cy="107" r="3" fill="white"/>
<circle opacity="0.5" cx="65" cy="75" r="3" fill="white"/>
<circle opacity="0.5" cx="76" cy="104" r="3" fill="white"/>
<circle opacity="0.5" cx="140" cy="83" r="3" fill="white"/>
</g>
</g>
<ellipse cx="159.361" cy="28.4846" rx="15.5403" ry="15.2265" transform="rotate(22.9727 159.361 28.4846)" fill="#1F8A30"/>
<ellipse opacity="0.4" cx="159.361" cy="28.4848" rx="12.767" ry="12.5092" transform="rotate(22.9727 159.361 28.4848)" fill="#F2F2F2"/>
<path d="M160.239 23.5865C160.271 24.1379 158.851 24.6688 158.3 24.7008C157.749 24.7329 157.276 24.3119 157.244 23.7605C157.212 23.2092 157.633 22.7362 158.184 22.7042C158.735 22.6722 160.207 23.0352 160.239 23.5865Z" fill="#F2F2F2"/>
<path d="M161.822 19.3159C161.455 19.7284 160.076 19.1002 159.663 18.733C159.251 18.3658 159.214 17.7337 159.581 17.3211C159.949 16.9086 160.581 16.8719 160.993 17.2391C161.406 17.6063 162.189 18.9034 161.822 19.3159Z" fill="#F2F2F2"/>
<path d="M171.143 26.6666C171.51 26.254 172.889 26.8822 173.302 27.2494C173.714 27.6167 173.751 28.2488 173.384 28.6613C173.016 29.0738 172.384 29.1105 171.972 28.7433C171.559 28.3761 170.776 27.0791 171.143 26.6666Z" fill="#F2F2F2"/>
<path d="M170.686 18.801C170.274 18.4337 170.902 17.0547 171.269 16.6422C171.636 16.2297 172.268 16.193 172.681 16.5602C173.093 16.9274 173.13 17.5595 172.763 17.972C172.396 18.3845 171.099 19.1682 170.686 18.801Z" fill="#F2F2F2"/>
<path d="M162.279 27.1815C162.692 27.5487 162.064 28.9277 161.696 29.3402C161.329 29.7527 160.697 29.7895 160.285 29.4222C159.872 29.055 159.835 28.4229 160.203 28.0104C160.57 27.5979 161.867 26.8142 162.279 27.1815Z" fill="#F2F2F2"/>
<path d="M165.881 17.2487C165.329 17.2808 164.798 15.8615 164.766 15.3101C164.734 14.7587 165.155 14.2858 165.707 14.2538C166.258 14.2218 166.731 14.6428 166.763 15.1941C166.795 15.7455 166.432 17.2167 165.881 17.2487Z" fill="#F2F2F2"/>
<path d="M166.577 29.2283C167.128 29.1963 167.659 30.6156 167.691 31.1669C167.723 31.7183 167.302 32.1912 166.751 32.2233C166.199 32.2553 165.726 31.8343 165.694 31.2829C165.662 30.7316 166.025 29.2603 166.577 29.2283Z" fill="#F2F2F2"/>
<path d="M172.219 22.8905C172.187 22.3391 173.606 21.8082 174.157 21.7762C174.709 21.7442 175.181 22.1652 175.213 22.7165C175.246 23.2679 174.825 23.7408 174.273 23.7728C173.722 23.8049 172.251 23.4419 172.219 22.8905Z" fill="#F2F2F2"/>
<circle cx="166.229" cy="23.2386" r="15" transform="rotate(-3.3246 166.229 23.2386)" stroke="#F2F2F2" stroke-width="2"/>
</g>
<defs>
<clipPath id="clip0">
<rect width="216" height="216" fill="white"/>
</clipPath>
</defs>
</svg>
