<svg width="216" height="216" viewBox="0 0 216 216" fill="none" xmlns="http://www.w3.org/2000/svg">
<g clip-path="url(#clip0)">
<path d="M52.93 32.9243C52.3877 28.1846 55.2332 23.7111 59.7558 22.1931V22.1931C91.0604 11.6857 124.94 11.6857 156.244 22.1931V22.1931C160.767 23.7111 163.612 28.1846 163.07 32.9243L144.779 192.794C144.309 196.897 141.366 200.29 137.37 201.333L133.259 202.406C116.697 206.729 99.3027 206.729 82.7406 202.406L78.6303 201.333C74.6342 200.29 71.6905 196.897 71.2211 192.794L52.93 32.9243Z" stroke="white" stroke-width="2"/>
<path d="M66.5 151V151C77.6044 193.812 138.396 193.812 149.5 151V151" stroke="white" stroke-width="2"/>
<path d="M163 33C163 44.8741 138.376 49 108 49C77.6243 49 53 44.8741 53 33" stroke="white" stroke-width="2"/>
<mask id="mask0" mask-type="alpha" maskUnits="userSpaceOnUse" x="62" y="52" width="92" height="123">
<path d="M62 52C92.3127 58.5897 123.687 58.5897 154 52L142.984 146.557C142.342 152.062 140.084 157.254 136.495 161.477C121.561 179.046 94.4393 179.046 79.5051 161.477C75.9156 157.254 73.6577 152.062 73.0163 146.557L62 52Z" fill="#C4C4C4"/>
</mask>
<g mask="url(#mask0)">
<path d="M38 116H177V156H38V116Z" fill="#A9E447"/>
<path d="M38 51H177V116H38V51Z" fill="#D0E5F0"/>
<path d="M38 155H177V175H38V155Z" fill="#FFF1BE"/>
</g>
<g clip-path="url(#clip1)">
<path d="M84.8423 20.5835C89.807 27.3322 76.877 34.6887 62.1963 45.4887C47.5155 56.2888 36.6434 66.4426 31.6786 59.6939C20.8101 44.9201 23.9006 24.1884 38.5814 13.3884C53.2621 2.58837 73.9738 5.80971 84.8423 20.5835Z" fill="#A9E447"/>
<path d="M77.8518 19.5188C82.8165 26.2675 69.8865 33.624 55.2058 44.424C40.525 55.2241 29.6529 65.3779 24.6881 58.6292C13.8197 43.8554 16.9101 23.1237 31.5909 12.3237C46.2716 1.52367 66.9833 4.74501 77.8518 19.5188Z" stroke="#F2F2F2" stroke-width="2"/>
<path d="M25.6073 28.5122L47.2961 38.8302C48.7487 39.5212 50.3812 38.3019 50.1309 36.713L46.4177 13.1407C46.3174 12.5046 45.7117 12.0767 45.0786 12.195C36.6485 13.7698 29.3713 19.0475 25.2557 26.5715L25.0818 26.8893C24.7583 27.4808 24.9985 28.2226 25.6073 28.5122Z" stroke="#F2F2F2" stroke-width="2"/>
<path d="M50.1112 12.8981L54.2834 34.8459C54.5648 36.3258 56.3194 36.9753 57.4964 36.0351L73.6617 23.1233C74.1667 22.72 74.2368 21.9783 73.8164 21.4874C68.2401 14.9771 60.0347 11.3155 51.465 11.5132L51.2266 11.5187C50.5085 11.5352 49.9771 12.1925 50.1112 12.8981Z" stroke="#F2F2F2" stroke-width="2"/>
<path d="M28.6995 56.1957L44.4551 45.5075C45.7872 44.6039 45.5604 42.577 44.0616 41.9901L24.8197 34.4554C24.4414 34.3072 24.0136 34.484 23.8503 34.856C21.3654 40.5144 21.7989 47.0294 25.0114 52.3087L27.1751 55.8643C27.4951 56.3902 28.19 56.5412 28.6995 56.1957Z" stroke="#F2F2F2" stroke-width="2"/>
</g>
</g>
<defs>
<clipPath id="clip0">
<rect width="216" height="216" fill="white"/>
</clipPath>
<clipPath id="clip1">
<rect width="74" height="50" fill="white" transform="translate(2 32.8511) rotate(-36.3404)"/>
</clipPath>
</defs>
</svg>
