<svg width="216" height="216" viewBox="0 0 216 216" fill="none" xmlns="http://www.w3.org/2000/svg">
<g clip-path="url(#clip0)">
<path d="M52.93 32.9243C52.3877 28.1846 55.2332 23.7111 59.7558 22.1931V22.1931C91.0604 11.6857 124.94 11.6857 156.244 22.1931V22.1931C160.767 23.7111 163.612 28.1846 163.07 32.9243L144.779 192.794C144.309 196.897 141.366 200.29 137.37 201.333L133.259 202.406C116.697 206.729 99.3027 206.729 82.7406 202.406L78.6303 201.333C74.6342 200.29 71.6905 196.897 71.2211 192.794L52.93 32.9243Z" stroke="white" stroke-width="2"/>
<path d="M66.5 151V151C77.6044 193.812 138.396 193.812 149.5 151V151" stroke="white" stroke-width="2"/>
<path d="M163 33C163 44.8741 138.376 49 108 49C77.6243 49 53 44.8741 53 33" stroke="white" stroke-width="2"/>
<mask id="mask0" mask-type="alpha" maskUnits="userSpaceOnUse" x="62" y="52" width="92" height="123">
<path d="M62 52C92.3127 58.5897 123.687 58.5897 154 52L142.984 146.557C142.342 152.062 140.084 157.254 136.495 161.477C121.561 179.046 94.4393 179.046 79.5051 161.477C75.9156 157.254 73.6577 152.062 73.0163 146.557L62 52Z" fill="#C4C4C4"/>
</mask>
<g mask="url(#mask0)">
<path d="M37.7319 114H176.732V178H37.7319V114Z" fill="#C1FF5B"/>
<path d="M37.7319 51H176.732V129H37.7319V51Z" fill="#79CCF8"/>
</g>
<g clip-path="url(#clip1)">
<path d="M81.3942 19.3535C86.9487 25.6257 74.7366 34.121 61.0924 46.204C47.4481 58.287 37.5384 69.3821 31.9839 63.1099C19.8243 49.3791 21.0279 28.453 34.6722 16.37C48.3165 4.28698 69.2346 5.62273 81.3942 19.3535Z" fill="#A9E447"/>
<path d="M74.3361 18.9252C79.8906 25.1975 67.6785 33.6928 54.0343 45.7758C40.39 57.8588 30.4803 68.9539 24.9258 62.6816C12.7662 48.9509 13.9698 28.0247 27.6141 15.9417C41.2584 3.85875 62.1765 5.19451 74.3361 18.9252Z" stroke="#F2F2F2" stroke-width="2"/>
<path d="M23.1185 32.6049L45.6513 40.9199C47.1604 41.4768 48.6761 40.1148 48.2831 38.555L42.4541 15.415C42.2968 14.7905 41.6548 14.4192 41.035 14.5942C32.7817 16.9247 26.0115 22.8387 22.5929 30.7039L22.4485 31.0361C22.1798 31.6544 22.486 32.3715 23.1185 32.6049Z" stroke="#F2F2F2" stroke-width="2"/>
<path d="M46.1104 14.8394L52.2497 36.3202C52.6636 37.7686 54.4697 38.2568 55.557 37.214L70.4888 22.8938C70.9553 22.4464 70.9581 21.7015 70.495 21.2506C64.3529 15.2711 55.8501 12.3662 47.3334 13.3378L47.0965 13.3648C46.3828 13.4462 45.913 14.1488 46.1104 14.8394Z" stroke="#F2F2F2" stroke-width="2"/>
<path d="M28.7006 59.8955L43.4255 47.8268C44.6704 46.8064 44.2613 44.8084 42.7156 44.3593L22.8714 38.5949C22.4812 38.4816 22.0712 38.6964 21.9421 39.0816C19.979 44.9414 20.9996 51.3906 24.6763 56.3579L27.1525 59.7033C27.5187 60.1981 28.2245 60.2857 28.7006 59.8955Z" stroke="#F2F2F2" stroke-width="2"/>
</g>
</g>
<defs>
<clipPath id="clip0">
<rect width="216" height="216" fill="white"/>
</clipPath>
<clipPath id="clip1">
<rect width="74" height="50" fill="white" transform="translate(0 39.0602) rotate(-41.5272)"/>
</clipPath>
</defs>
</svg>
