<svg width="216" height="216" viewBox="0 0 216 216" fill="none" xmlns="http://www.w3.org/2000/svg">
<g clip-path="url(#clip0)">
<path d="M52.93 32.9243C52.3877 28.1846 55.2332 23.7111 59.7558 22.1931V22.1931C91.0604 11.6857 124.94 11.6857 156.244 22.1931V22.1931C160.767 23.7111 163.612 28.1846 163.07 32.9243L144.779 192.794C144.309 196.897 141.366 200.29 137.37 201.333L133.259 202.406C116.697 206.729 99.3027 206.729 82.7406 202.406L78.6303 201.333C74.6342 200.29 71.6905 196.897 71.2211 192.794L52.93 32.9243Z" stroke="white" stroke-width="2"/>
<path d="M66.5 151V151C77.6044 193.812 138.396 193.812 149.5 151V151" stroke="white" stroke-width="2"/>
<g clip-path="url(#clip1)">
<rect x="53.3447" y="1.12451" width="59" height="23" transform="rotate(35.3875 53.3447 1.12451)" fill="#6B3B2C"/>
<path d="M59.1583 1.57404L105.628 34.5829L93.4666 51.7033L46.9971 18.6944L59.1583 1.57404Z" stroke="#F2F2F2" stroke-width="2"/>
<path d="M74.6482 12.5771L62.7766 29.2899" stroke="#F2F2F2" stroke-width="2"/>
<path d="M90.1379 23.5801L78.2663 40.2928" stroke="#F2F2F2" stroke-width="2"/>
<path d="M75.5928 18.1546L75.0513 14.9575C74.9026 14.0791 75.8901 13.4593 76.6164 13.9752L88.2245 22.2209C88.943 22.7312 88.6979 23.8539 87.8322 24.0185L87.4137 24.0981L84.6893 24.6161M75.5928 18.1546L68.0645 28.7529M75.5928 18.1546L84.6893 24.6161M68.0645 28.7529L64.8673 29.2944C63.9889 29.4431 63.7289 30.5796 64.4552 31.0956L76.0634 39.3412C76.7818 39.8516 77.7612 39.2505 77.6316 38.3789L77.161 35.2145M68.0645 28.7529L77.161 35.2145M77.161 35.2145L84.6893 24.6161" stroke="#F2F2F2" stroke-width="2"/>
<path d="M91.0825 29.1575L90.5411 25.9604C90.3923 25.082 91.3798 24.4622 92.1061 24.9782L103.714 33.2238C104.433 33.7341 104.188 34.8569 103.322 35.0215L102.903 35.1011L100.179 35.6191M91.0825 29.1575L83.5542 39.7558M91.0825 29.1575L100.179 35.6191M83.5542 39.7558L80.3571 40.2973C79.4787 40.4461 79.2187 41.5826 79.945 42.0985L91.5531 50.3442C92.2715 50.8545 93.251 50.2534 93.1213 49.3818L92.6507 46.2174M83.5542 39.7558L92.6507 46.2174M92.6507 46.2174L100.179 35.6191" stroke="#F2F2F2" stroke-width="2"/>
<path d="M60.1031 7.15165L59.5616 3.95454C59.4128 3.07614 60.4003 2.45637 61.1266 2.9723L72.7348 11.218C73.4532 11.7283 73.2082 12.851 72.3425 13.0156L71.9239 13.0952L69.1996 13.6132M60.1031 7.15165L52.5747 17.75M60.1031 7.15165L69.1996 13.6132M52.5747 17.75L49.3776 18.2914C48.4992 18.4402 48.2392 19.5767 48.9655 20.0926L60.5736 28.3383C61.2921 28.8486 62.2715 28.2476 62.1418 27.3759L61.6712 24.2115M52.5747 17.75L61.6712 24.2115M61.6712 24.2115L69.1996 13.6132" stroke="#F2F2F2" stroke-width="2"/>
</g>
<path d="M163 33C163 44.8741 138.376 49 108 49C77.6243 49 53 44.8741 53 33" stroke="white" stroke-width="2"/>
<mask id="mask0" mask-type="alpha" maskUnits="userSpaceOnUse" x="62" y="52" width="92" height="123">
<path d="M62 52C92.3127 58.5897 123.687 58.5897 154 52L142.984 146.557C142.342 152.062 140.084 157.254 136.495 161.477C121.561 179.046 94.4393 179.046 79.5051 161.477C75.9156 157.254 73.6577 152.062 73.0163 146.557L62 52Z" fill="#C4C4C4"/>
</mask>
<g mask="url(#mask0)">
<path d="M39.7319 51H178.732V79H39.7319V51Z" fill="#F2F2F2"/>
<path d="M40 101H179V177H40V101Z" fill="#D0F0F0"/>
<path d="M45 74H184V115H45V74Z" fill="#8A382A"/>
</g>
</g>
<defs>
<clipPath id="clip0">
<rect width="216" height="216" fill="white"/>
</clipPath>
<clipPath id="clip1">
<rect width="74" height="50" fill="white" transform="translate(57.9551 -14) rotate(35.3875)"/>
</clipPath>
</defs>
</svg>
