<svg width="216" height="216" viewBox="0 0 216 216" fill="none" xmlns="http://www.w3.org/2000/svg">
<g clip-path="url(#clip0)">
<path d="M52.93 32.9243C52.3877 28.1846 55.2332 23.7111 59.7558 22.1931V22.1931C91.0604 11.6857 124.94 11.6857 156.244 22.1931V22.1931C160.767 23.7111 163.612 28.1846 163.07 32.9243L144.779 192.794C144.309 196.897 141.366 200.29 137.37 201.333L133.259 202.406C116.697 206.729 99.3027 206.729 82.7406 202.406L78.6303 201.333C74.6342 200.29 71.6905 196.897 71.2211 192.794L52.93 32.9243Z" stroke="white" stroke-width="2"/>
<path d="M66.5 151V151C77.6044 193.812 138.396 193.812 149.5 151V151" stroke="white" stroke-width="2"/>
<path d="M163 33C163 44.8741 138.376 49 108 49C77.6243 49 53 44.8741 53 33" stroke="white" stroke-width="2"/>
<mask id="mask0" mask-type="alpha" maskUnits="userSpaceOnUse" x="62" y="52" width="92" height="123">
<path d="M62 52C92.3127 58.5897 123.687 58.5897 154 52L142.984 146.557C142.342 152.062 140.084 157.254 136.495 161.477C121.561 179.046 94.4393 179.046 79.5051 161.477C75.9156 157.254 73.6577 152.062 73.0163 146.557L62 52Z" fill="#C4C4C4"/>
</mask>
<g mask="url(#mask0)">
<path d="M33 142H172V176H33V142Z" fill="#C1FF5B"/>
<path d="M34 108H173V142H34V108Z" fill="#EED57C"/>
<mask id="mask1" mask-type="alpha" maskUnits="userSpaceOnUse" x="53" y="34" width="108" height="75">
<rect x="53" y="34" width="108" height="75" fill="#64D78E"/>
</mask>
<g mask="url(#mask1)">
<rect x="53" y="34" width="108" height="75" fill="#64D78E"/>
<circle opacity="0.5" cx="145.5" cy="95.5" r="1.5" fill="white"/>
<circle opacity="0.5" cx="98.5" cy="88.5" r="1.5" fill="white"/>
<circle opacity="0.5" cx="94.5" cy="66.5" r="1.5" fill="white"/>
<circle opacity="0.5" cx="93.5" cy="107.5" r="1.5" fill="white"/>
<circle opacity="0.5" cx="81.5" cy="79.5" r="1.5" fill="white"/>
<circle opacity="0.5" cx="125.5" cy="61.5" r="1.5" fill="white"/>
<circle opacity="0.5" cx="131.5" cy="108.5" r="1.5" fill="white"/>
<circle opacity="0.5" cx="78" cy="53" r="2" fill="white"/>
<circle opacity="0.5" cx="152" cy="60" r="2" fill="white"/>
<circle opacity="0.5" cx="112" cy="76" r="2" fill="white"/>
<circle opacity="0.5" cx="128" cy="86" r="2" fill="white"/>
<circle opacity="0.5" cx="110" cy="51" r="3" fill="white"/>
<circle opacity="0.5" cx="116" cy="98" r="3" fill="white"/>
<circle opacity="0.5" cx="65" cy="66" r="3" fill="white"/>
<circle opacity="0.5" cx="76" cy="95" r="3" fill="white"/>
<circle opacity="0.5" cx="140" cy="74" r="3" fill="white"/>
</g>
</g>
<g clip-path="url(#clip1)">
<path d="M106.295 137.054C97.6988 144.84 95.6896 156.627 101.807 163.381C107.925 170.135 119.852 169.299 128.448 161.513C137.044 153.727 143.704 132.178 140.348 128.472C136.991 124.767 114.891 129.268 106.295 137.054Z" fill="#228C46"/>
<path d="M104.56 129.181C96.197 136.756 94.5373 147.907 100.142 154.095C105.747 160.283 117.008 159.732 125.371 152.157C129.482 148.434 133.227 141.292 135.528 134.526C136.672 131.161 137.437 127.951 137.713 125.382C137.852 124.095 137.864 123.003 137.755 122.149C137.643 121.269 137.418 120.769 137.201 120.529C136.983 120.289 136.508 120.016 135.644 119.818C134.804 119.625 133.716 119.529 132.422 119.54C129.838 119.562 126.569 120.007 123.107 120.813C116.147 122.435 108.671 125.458 104.56 129.181Z" stroke="#F2F2F2" stroke-width="2"/>
<path d="M136.83 120.865L131.514 124.456C119.513 132.562 108.917 142.574 100.142 154.095V154.095" stroke="#F2F2F2" stroke-width="2"/>
<path d="M124.37 129.452L127.313 120.04" stroke="#F2F2F2" stroke-width="2"/>
<path d="M116.993 135.459V135.459C117.379 132.42 118.104 129.434 119.155 126.556L121.258 120.803" stroke="#F2F2F2" stroke-width="2"/>
<path d="M109.512 143.585V143.585C109.626 139.448 110.23 135.34 111.312 131.345L113.314 123.95" stroke="#F2F2F2" stroke-width="2"/>
<path d="M103.513 150.368V150.368C102.86 145.918 102.741 141.405 103.159 136.927L103.819 129.852" stroke="#F2F2F2" stroke-width="2"/>
<path d="M123.999 129.788V129.788C128.224 129.997 132.459 129.743 136.628 129.03L136.781 129.004" stroke="#F2F2F2" stroke-width="2"/>
<path d="M116.588 136.501V136.501C121.566 137.566 126.698 137.712 131.729 136.931L135.355 136.367" stroke="#F2F2F2" stroke-width="2"/>
<path d="M108.805 143.55V143.55C114.17 144.727 119.684 145.064 125.151 144.551L131.44 143.961" stroke="#F2F2F2" stroke-width="2"/>
<path d="M102.841 149.627V149.627C107.541 151.085 112.394 151.991 117.303 152.327L124.63 152.828" stroke="#F2F2F2" stroke-width="2"/>
</g>
<g clip-path="url(#clip2)">
<path d="M80.0508 20.725C85.9751 26.6493 74.3001 35.8687 61.4128 48.756C48.5255 61.6433 39.306 73.3183 33.3818 67.3941C20.4128 54.4251 20.3466 33.4645 33.2339 20.5772C46.1212 7.68989 67.0819 7.75608 80.0508 20.725Z" fill="#A9E447"/>
<path d="M72.9798 20.725C78.904 26.6493 67.229 35.8687 54.3417 48.756C41.4544 61.6433 32.235 73.3183 26.3107 67.3941C13.3418 54.4251 13.2756 33.4645 26.1629 20.5772C39.0502 7.68989 60.0108 7.75608 72.9798 20.725Z" stroke="#F2F2F2" stroke-width="2"/>
<path d="M22.6849 37.482L45.68 44.4169C47.22 44.8813 48.6504 43.4301 48.1637 41.8969L40.9436 19.1525C40.7488 18.5387 40.0855 18.2069 39.4775 18.4191C31.3805 21.2453 24.9809 27.5585 22.0451 35.6164L21.9211 35.9567C21.6903 36.5901 22.0394 37.2874 22.6849 37.482Z" stroke="#F2F2F2" stroke-width="2"/>
<path d="M44.5586 18.3565L51.9878 39.426C52.4887 40.8467 54.3211 41.2245 55.3432 40.1179L69.3801 24.9194C69.8187 24.4446 69.7763 23.7008 69.2867 23.2789C62.7938 17.6824 54.1306 15.2979 45.6884 16.7836L45.4535 16.8249C44.7461 16.9494 44.3197 17.6792 44.5586 18.3565Z" stroke="#F2F2F2" stroke-width="2"/>
<path d="M29.9099 64.3844L43.8766 51.4459C45.0575 50.352 44.5281 48.3824 42.958 48.0278L22.801 43.4761C22.4047 43.3866 22.0085 43.6258 21.903 44.0181C20.2984 49.9861 21.7078 56.3616 25.6786 61.0971L28.3529 64.2863C28.7485 64.758 29.4583 64.8028 29.9099 64.3844Z" stroke="#F2F2F2" stroke-width="2"/>
</g>
</g>
<defs>
<clipPath id="clip0">
<rect width="216" height="216" fill="white"/>
</clipPath>
<clipPath id="clip1">
<rect width="56" height="73" fill="white" transform="matrix(-0.951965 -0.306206 -0.306206 0.951965 153.663 114.147)"/>
</clipPath>
<clipPath id="clip2">
<rect width="74" height="50" fill="white" transform="translate(0 45.3259) rotate(-45)"/>
</clipPath>
</defs>
</svg>
