<svg width="216" height="216" viewBox="0 0 216 216" fill="none" xmlns="http://www.w3.org/2000/svg">
<g clip-path="url(#clip0)">
<path d="M52.93 32.9243C52.3877 28.1846 55.2332 23.7111 59.7558 22.1931V22.1931C91.0604 11.6857 124.94 11.6857 156.244 22.1931V22.1931C160.767 23.7111 163.612 28.1846 163.07 32.9243L144.779 192.794C144.309 196.897 141.366 200.29 137.37 201.333L133.259 202.406C116.697 206.729 99.3027 206.729 82.7406 202.406L78.6303 201.333C74.6342 200.29 71.6905 196.897 71.2211 192.794L52.93 32.9243Z" stroke="white" stroke-width="2"/>
<path d="M66.5 151V151C77.6044 193.812 138.396 193.812 149.5 151V151" stroke="white" stroke-width="2"/>
<path d="M163 33C163 44.8741 138.376 49 108 49C77.6243 49 53 44.8741 53 33" stroke="white" stroke-width="2"/>
<mask id="mask0" mask-type="alpha" maskUnits="userSpaceOnUse" x="62" y="52" width="92" height="123">
<path d="M62 52C92.3127 58.5897 123.687 58.5897 154 52L142.984 146.557C142.342 152.062 140.084 157.254 136.495 161.477C121.561 179.046 94.4393 179.046 79.5051 161.477C75.9156 157.254 73.6577 152.062 73.0163 146.557L62 52Z" fill="#C4C4C4"/>
</mask>
<g mask="url(#mask0)">
<path d="M33 146H172V183H33V146Z" fill="#D0E5F0"/>
<path d="M33 120H172V150H33V120Z" fill="#EED57C"/>
<mask id="mask1" mask-type="alpha" maskUnits="userSpaceOnUse" x="53" y="34" width="108" height="87">
<rect x="53" y="34" width="108" height="87" fill="#64D78E"/>
</mask>
<g mask="url(#mask1)">
<rect x="53" y="34" width="108" height="87" fill="#64D78E"/>
<circle opacity="0.5" cx="139.5" cy="54.5" r="1.5" fill="white"/>
<circle opacity="0.5" cx="145.5" cy="101.5" r="1.5" fill="white"/>
<circle opacity="0.5" cx="98.5" cy="94.5" r="1.5" fill="white"/>
<circle opacity="0.5" cx="94.5" cy="72.5" r="1.5" fill="white"/>
<circle opacity="0.5" cx="93.5" cy="113.5" r="1.5" fill="white"/>
<circle opacity="0.5" cx="81.5" cy="85.5" r="1.5" fill="white"/>
<circle opacity="0.5" cx="125.5" cy="67.5" r="1.5" fill="white"/>
<circle opacity="0.5" cx="131.5" cy="114.5" r="1.5" fill="white"/>
<circle opacity="0.5" cx="78" cy="59" r="2" fill="white"/>
<circle opacity="0.5" cx="152" cy="66" r="2" fill="white"/>
<circle opacity="0.5" cx="112" cy="82" r="2" fill="white"/>
<circle opacity="0.5" cx="128" cy="92" r="2" fill="white"/>
<circle opacity="0.5" cx="110" cy="57" r="3" fill="white"/>
<circle opacity="0.5" cx="116" cy="104" r="3" fill="white"/>
<circle opacity="0.5" cx="65" cy="72" r="3" fill="white"/>
<circle opacity="0.5" cx="76" cy="101" r="3" fill="white"/>
<circle opacity="0.5" cx="140" cy="80" r="3" fill="white"/>
</g>
</g>
<g clip-path="url(#clip1)">
<path d="M106.295 137.054C97.6988 144.84 95.6896 156.627 101.807 163.381C107.925 170.135 119.852 169.299 128.448 161.513C137.044 153.727 143.704 132.178 140.348 128.472C136.991 124.767 114.891 129.268 106.295 137.054Z" fill="#228C46"/>
<path d="M104.56 129.181C96.197 136.756 94.5373 147.907 100.142 154.095C105.747 160.283 117.008 159.732 125.371 152.157C129.482 148.434 133.227 141.292 135.528 134.526C136.672 131.161 137.437 127.951 137.713 125.382C137.852 124.095 137.864 123.003 137.755 122.149C137.643 121.269 137.418 120.769 137.201 120.529C136.983 120.289 136.508 120.016 135.644 119.818C134.804 119.625 133.716 119.529 132.422 119.54C129.838 119.562 126.569 120.007 123.107 120.813C116.147 122.435 108.671 125.458 104.56 129.181Z" stroke="#F2F2F2" stroke-width="2"/>
<path d="M136.83 120.865L131.514 124.456C119.513 132.562 108.917 142.574 100.142 154.095V154.095" stroke="#F2F2F2" stroke-width="2"/>
<path d="M124.37 129.452L127.313 120.04" stroke="#F2F2F2" stroke-width="2"/>
<path d="M116.993 135.459V135.459C117.379 132.42 118.104 129.434 119.155 126.556L121.258 120.803" stroke="#F2F2F2" stroke-width="2"/>
<path d="M109.512 143.585V143.585C109.626 139.448 110.23 135.34 111.312 131.345L113.314 123.95" stroke="#F2F2F2" stroke-width="2"/>
<path d="M103.513 150.368V150.368C102.86 145.918 102.741 141.405 103.159 136.927L103.819 129.852" stroke="#F2F2F2" stroke-width="2"/>
<path d="M123.999 129.788V129.788C128.224 129.997 132.459 129.743 136.628 129.03L136.781 129.004" stroke="#F2F2F2" stroke-width="2"/>
<path d="M116.588 136.501V136.501C121.566 137.566 126.698 137.712 131.729 136.931L135.355 136.367" stroke="#F2F2F2" stroke-width="2"/>
<path d="M108.805 143.55V143.55C114.17 144.727 119.684 145.064 125.151 144.551L131.44 143.961" stroke="#F2F2F2" stroke-width="2"/>
<path d="M102.841 149.627V149.627C107.541 151.085 112.394 151.991 117.303 152.327L124.63 152.828" stroke="#F2F2F2" stroke-width="2"/>
</g>
<g clip-path="url(#clip2)">
<path d="M139.048 80.2668C144.374 86.7341 131.866 94.7861 117.797 106.372C103.728 117.958 93.427 128.691 88.1009 122.223C76.4415 108.065 78.3947 87.1958 92.4635 75.6099C106.532 64.0239 127.389 66.1088 139.048 80.2668Z" fill="#A9E447"/>
<path d="M132.01 79.5856C137.336 86.053 124.827 94.1049 110.759 105.691C96.6898 117.277 86.3886 128.01 81.0626 121.542C69.4032 107.384 71.3564 86.5147 85.4252 74.9287C99.494 63.3427 120.351 65.4277 132.01 79.5856Z" stroke="#F2F2F2" stroke-width="2"/>
<path d="M80.3351 91.4199L102.555 100.538C104.043 101.148 105.607 99.8415 105.27 98.2686L100.275 74.9344C100.14 74.3047 99.5115 73.9106 98.8859 74.0633C90.5543 76.0963 83.5763 81.7638 79.8779 89.5013L79.7217 89.8281C79.431 90.4364 79.7113 91.164 80.3351 91.4199Z" stroke="#F2F2F2" stroke-width="2"/>
<path d="M103.949 74.4904L109.314 96.1775C109.676 97.6399 111.464 98.1925 112.588 97.1894L128.023 83.4138C128.505 82.9834 128.535 82.239 128.088 81.7718C122.165 75.5759 113.771 72.368 105.225 73.0336L104.988 73.0521C104.271 73.1079 103.777 73.7932 103.949 74.4904Z" stroke="#F2F2F2" stroke-width="2"/>
<path d="M84.9351 118.893L100.083 107.36C101.364 106.385 101.027 104.374 99.4981 103.87L79.8734 97.3973C79.4875 97.2701 79.0701 97.4699 78.9273 97.8503C76.7553 103.636 77.544 110.118 81.0402 115.214L83.3948 118.646C83.7431 119.153 84.4453 119.266 84.9351 118.893Z" stroke="#F2F2F2" stroke-width="2"/>
</g>
</g>
<defs>
<clipPath id="clip0">
<rect width="216" height="216" fill="white"/>
</clipPath>
<clipPath id="clip1">
<rect width="56" height="73" fill="white" transform="matrix(-0.951965 -0.306206 -0.306206 0.951965 153.663 114.147)"/>
</clipPath>
<clipPath id="clip2">
<rect width="74" height="50" fill="white" transform="translate(57 97.0422) rotate(-39.4723)"/>
</clipPath>
</defs>
</svg>
