<svg width="216" height="216" viewBox="0 0 216 216" fill="none" xmlns="http://www.w3.org/2000/svg">
<g clip-path="url(#clip0)">
<path d="M52.93 32.9243C52.3877 28.1846 55.2332 23.7111 59.7558 22.1931V22.1931C91.0604 11.6857 124.94 11.6857 156.244 22.1931V22.1931C160.767 23.7111 163.612 28.1846 163.07 32.9243L144.779 192.794C144.309 196.897 141.366 200.29 137.37 201.333L133.259 202.406C116.697 206.729 99.3027 206.729 82.7406 202.406L78.6303 201.333C74.6342 200.29 71.6905 196.897 71.2211 192.794L52.93 32.9243Z" stroke="white" stroke-width="2"/>
<path d="M66.5 151V151C77.6044 193.812 138.396 193.812 149.5 151V151" stroke="white" stroke-width="2"/>
<path d="M163 33C163 44.8741 138.376 49 108 49C77.6243 49 53 44.8741 53 33" stroke="white" stroke-width="2"/>
<mask id="mask0" mask-type="alpha" maskUnits="userSpaceOnUse" x="62" y="52" width="92" height="123">
<path d="M62 52C92.3127 58.5897 123.687 58.5897 154 52L142.984 146.557C142.342 152.062 140.084 157.254 136.495 161.477C121.561 179.046 94.4393 179.046 79.5051 161.477C75.9156 157.254 73.6577 152.062 73.0163 146.557L62 52Z" fill="#C4C4C4"/>
</mask>
<g mask="url(#mask0)">
<path d="M39.7319 51H178.732V110H39.7319V51Z" fill="white"/>
<path d="M39.7319 143H178.732V179H39.7319V143Z" fill="#FFFCEC"/>
<mask id="mask1" mask-type="alpha" maskUnits="userSpaceOnUse" x="51" y="110" width="109" height="66">
<rect x="51.7319" y="110" width="108" height="66" fill="#E9E88D"/>
</mask>
<g mask="url(#mask1)">
<rect x="51.7319" y="110" width="108" height="66" fill="#E9E88D"/>
<path d="M129.212 58L21.7319 165.48" stroke="#F19859" stroke-width="2"/>
<path d="M171.639 100.426L64.1584 207.907" stroke="#F19859" stroke-width="2"/>
<path d="M143.354 72.1421L35.874 179.622" stroke="#F19859" stroke-width="2"/>
<path d="M185.781 114.569L78.3005 222.049" stroke="#F19859" stroke-width="2"/>
<path d="M157.497 86.2842L50.0164 193.764" stroke="#F19859" stroke-width="2"/>
<path d="M199.923 128.711L92.4426 236.191" stroke="#F19859" stroke-width="2"/>
<path d="M92.4426 65L199.923 172.48" stroke="#F19859" stroke-width="2"/>
<path d="M50.0161 107.426L157.496 214.907" stroke="#F19859" stroke-width="2"/>
<path d="M78.3005 79.1421L185.781 186.622" stroke="#F19859" stroke-width="2"/>
<path d="M35.874 121.569L143.354 229.049" stroke="#F19859" stroke-width="2"/>
<path d="M64.1582 93.2842L171.638 200.764" stroke="#F19859" stroke-width="2"/>
<path d="M21.7319 135.711L129.212 243.191" stroke="#F19859" stroke-width="2"/>
</g>
</g>
<g clip-path="url(#clip1)">
<path d="M133.15 14.6963C126.822 20.187 137.817 30.2085 149.761 43.9743C161.705 57.7401 170.077 70.0374 176.405 64.5467C190.258 52.5266 191.805 31.6231 179.861 17.8573C167.916 4.09146 147.003 2.67622 133.15 14.6963Z" fill="#F0933E"/>
<path d="M140.204 15.196C133.876 20.6868 144.87 30.7082 156.814 44.4741C168.759 58.2399 177.13 70.5372 183.458 65.0464C197.311 53.0264 198.858 32.1228 186.914 18.357C174.97 4.59121 154.057 3.17598 140.204 15.196Z" stroke="#F2F2F2" stroke-width="2"/>
<path d="M189.189 35.4653L165.761 40.7578C164.192 41.1122 162.868 39.5635 163.462 38.0686L172.271 15.8913C172.509 15.2927 173.194 15.0087 173.785 15.2634C181.662 18.6546 187.6 25.4044 189.959 33.6495L190.059 33.9977C190.244 34.6459 189.846 35.3168 189.189 35.4653Z" stroke="#F2F2F2" stroke-width="2"/>
<path d="M168.721 14.842L159.822 35.3337C159.222 36.7155 157.367 36.9629 156.426 35.7867L143.498 19.6343C143.094 19.1297 143.189 18.3908 143.707 18.0044C150.579 12.8808 159.389 11.1145 167.706 13.1931L167.937 13.2509C168.634 13.4251 169.008 14.1831 168.721 14.842Z" stroke="#F2F2F2" stroke-width="2"/>
<path d="M180.081 61.79L167.063 47.8969C165.963 46.7223 166.63 44.795 168.221 44.5523L188.649 41.4364C189.051 41.3751 189.429 41.6417 189.507 42.0405C190.686 48.107 188.829 54.367 184.534 58.81L181.641 61.8023C181.213 62.2448 180.502 62.2393 180.081 61.79Z" stroke="#F2F2F2" stroke-width="2"/>
</g>
</g>
<defs>
<clipPath id="clip0">
<rect width="216" height="216" fill="white"/>
</clipPath>
<clipPath id="clip1">
<rect width="74" height="50" fill="white" transform="matrix(-0.655369 -0.755309 -0.755309 0.655369 211.263 44.8928)"/>
</clipPath>
</defs>
</svg>
