<svg width="216" height="216" viewBox="0 0 216 216" fill="none" xmlns="http://www.w3.org/2000/svg">
<g clip-path="url(#clip0)">
<path d="M52.93 32.9243C52.3877 28.1846 55.2332 23.7111 59.7558 22.1931V22.1931C91.0604 11.6857 124.94 11.6857 156.244 22.1931V22.1931C160.767 23.7111 163.612 28.1846 163.07 32.9243L144.779 192.794C144.309 196.897 141.366 200.29 137.37 201.333L133.259 202.406C116.697 206.729 99.3027 206.729 82.7406 202.406L78.6303 201.333C74.6342 200.29 71.6905 196.897 71.2211 192.794L52.93 32.9243Z" stroke="white" stroke-width="2"/>
<path d="M66.5 151V151C77.6044 193.812 138.396 193.812 149.5 151V151" stroke="white" stroke-width="2"/>
<path d="M163 33C163 44.8741 138.376 49 108 49C77.6243 49 53 44.8741 53 33" stroke="white" stroke-width="2"/>
<mask id="mask0" mask-type="alpha" maskUnits="userSpaceOnUse" x="62" y="52" width="92" height="123">
<path d="M62 52C92.3127 58.5897 123.687 58.5897 154 52L142.984 146.557C142.342 152.062 140.084 157.254 136.495 161.477C121.561 179.046 94.4393 179.046 79.5051 161.477C75.9156 157.254 73.6577 152.062 73.0163 146.557L62 52Z" fill="#C4C4C4"/>
</mask>
<g mask="url(#mask0)">
<path d="M39.7319 51H178.732V87H39.7319V51Z" fill="white"/>
<path d="M39.7319 143H178.732V179H39.7319V143Z" fill="#FFFCEC"/>
<path d="M39.7319 77H178.732V113H39.7319V77Z" fill="#D0E5F0"/>
<mask id="mask1" mask-type="alpha" maskUnits="userSpaceOnUse" x="52" y="104" width="109" height="72">
<rect x="52.7319" y="104" width="108" height="72" fill="#E9E88D"/>
</mask>
<g mask="url(#mask1)">
<rect x="52.7319" y="104" width="108" height="72" fill="#E9E88D"/>
<path d="M130.212 55L22.7319 162.48" stroke="#F19859" stroke-width="2"/>
<path d="M172.639 97.4264L65.1584 204.907" stroke="#F19859" stroke-width="2"/>
<path d="M144.354 69.1421L36.874 176.622" stroke="#F19859" stroke-width="2"/>
<path d="M186.781 111.569L79.3005 219.049" stroke="#F19859" stroke-width="2"/>
<path d="M158.497 83.2843L51.0164 190.765" stroke="#F19859" stroke-width="2"/>
<path d="M200.923 125.711L93.4426 233.191" stroke="#F19859" stroke-width="2"/>
<path d="M93.4426 62L200.923 169.48" stroke="#F19859" stroke-width="2"/>
<path d="M51.0161 104.426L158.496 211.907" stroke="#F19859" stroke-width="2"/>
<path d="M79.3005 76.1421L186.781 183.622" stroke="#F19859" stroke-width="2"/>
<path d="M36.874 118.569L144.354 226.049" stroke="#F19859" stroke-width="2"/>
<path d="M65.1582 90.2843L172.638 197.765" stroke="#F19859" stroke-width="2"/>
<path d="M22.7319 132.711L130.212 240.191" stroke="#F19859" stroke-width="2"/>
</g>
</g>
<g clip-path="url(#clip1)">
<path d="M83.3942 25.3535C88.9487 31.6257 76.7366 40.121 63.0924 52.204C49.4481 64.287 39.5384 75.3821 33.9839 69.1099C21.8243 55.3791 23.0279 34.453 36.6722 22.37C50.3165 10.287 71.2346 11.6227 83.3942 25.3535Z" fill="#F0933E"/>
<path d="M76.3361 24.9252C81.8906 31.1975 69.6785 39.6928 56.0343 51.7758C42.39 63.8588 32.4803 74.9539 26.9258 68.6816C14.7662 54.9509 15.9698 34.0247 29.6141 21.9417C43.2584 9.85875 64.1765 11.1945 76.3361 24.9252Z" stroke="#F2F2F2" stroke-width="2"/>
<path d="M25.1185 38.6049L47.6513 46.9199C49.1604 47.4768 50.6761 46.1148 50.2831 44.555L44.4541 21.415C44.2968 20.7905 43.6548 20.4192 43.035 20.5942C34.7817 22.9247 28.0115 28.8387 24.5929 36.7039L24.4485 37.0361C24.1798 37.6544 24.486 38.3715 25.1185 38.6049Z" stroke="#F2F2F2" stroke-width="2"/>
<path d="M48.1104 20.8394L54.2497 42.3202C54.6636 43.7686 56.4697 44.2568 57.557 43.214L72.4888 28.8938C72.9553 28.4464 72.9581 27.7015 72.495 27.2506C66.3529 21.2711 57.8501 18.3662 49.3334 19.3378L49.0965 19.3648C48.3828 19.4462 47.913 20.1488 48.1104 20.8394Z" stroke="#F2F2F2" stroke-width="2"/>
<path d="M30.7006 65.8955L45.4255 53.8268C46.6704 52.8064 46.2613 50.8084 44.7156 50.3593L24.8714 44.5949C24.4812 44.4816 24.0712 44.6964 23.9421 45.0816C21.979 50.9414 22.9996 57.3906 26.6763 62.3579L29.1525 65.7033C29.5187 66.1981 30.2245 66.2857 30.7006 65.8955Z" stroke="#F2F2F2" stroke-width="2"/>
</g>
</g>
<defs>
<clipPath id="clip0">
<rect width="216" height="216" fill="white"/>
</clipPath>
<clipPath id="clip1">
<rect width="74" height="50" fill="white" transform="translate(2 45.0602) rotate(-41.5272)"/>
</clipPath>
</defs>
</svg>
