<svg width="216" height="216" viewBox="0 0 216 216" fill="none" xmlns="http://www.w3.org/2000/svg">
<g clip-path="url(#clip0)">
<path d="M52.93 32.9243C52.3877 28.1846 55.2332 23.7111 59.7558 22.1931V22.1931C91.0604 11.6857 124.94 11.6857 156.244 22.1931V22.1931C160.767 23.7111 163.612 28.1846 163.07 32.9243L144.779 192.794C144.309 196.897 141.366 200.29 137.37 201.333L133.259 202.406C116.697 206.729 99.3027 206.729 82.7406 202.406L78.6303 201.333C74.6342 200.29 71.6905 196.897 71.2211 192.794L52.93 32.9243Z" stroke="white" stroke-width="2"/>
<path d="M66.5 151V151C77.6044 193.812 138.396 193.812 149.5 151V151" stroke="white" stroke-width="2"/>
<path d="M163 33C163 44.8741 138.376 49 108 49C77.6243 49 53 44.8741 53 33" stroke="white" stroke-width="2"/>
<mask id="mask0" mask-type="alpha" maskUnits="userSpaceOnUse" x="62" y="52" width="92" height="123">
<path d="M62 52C92.3127 58.5897 123.687 58.5897 154 52L142.984 146.557C142.342 152.062 140.084 157.254 136.495 161.477C121.561 179.046 94.4393 179.046 79.5051 161.477C75.9156 157.254 73.6577 152.062 73.0163 146.557L62 52Z" fill="#C4C4C4"/>
</mask>
<g mask="url(#mask0)">
<path d="M38 151H177V176H38V151Z" fill="#F4D25A"/>
<path d="M38 133H177V152H38V133Z" fill="#A9E447"/>
<path d="M38 72H177V134H38V72Z" fill="#E49C47"/>
<path d="M38 51H177V74H38V51Z" fill="#FFFE63"/>
</g>
<path d="M142 117.209C142 125.587 127.225 123.851 109 123.851C90.7746 123.851 76 125.587 76 117.209C76 98.8682 90.7746 84 109 84C127.225 84 142 98.8682 142 117.209Z" stroke="#F2F2F2" stroke-width="2"/>
<path d="M94.5872 93.4943L105.943 114.658C106.704 116.075 108.742 116.061 109.482 114.632L120.459 93.4442C120.755 92.8724 120.521 92.1688 119.941 91.8889C112.217 88.1619 103.228 88.1008 95.454 91.7226L95.1257 91.8756C94.5145 92.1603 94.2684 92.9002 94.5872 93.4943Z" stroke="#F2F2F2" stroke-width="2"/>
<path d="M123.578 95.4375L113.933 115.589C113.283 116.948 114.311 118.511 115.816 118.451L136.489 117.63C137.135 117.604 137.631 117.048 137.583 116.404C136.949 107.855 132.509 100.043 125.489 95.1241L125.294 94.9873C124.706 94.5751 123.888 94.7896 123.578 95.4375Z" stroke="#F2F2F2" stroke-width="2"/>
<path d="M80.6731 117.626L99.698 118.353C101.306 118.415 102.325 116.648 101.465 115.287L90.4308 97.8149C90.2139 97.4714 89.7646 97.3603 89.4125 97.5632C84.0579 100.649 80.5464 106.153 80.0057 112.31L79.6415 116.456C79.5877 117.069 80.058 117.603 80.6731 117.626Z" stroke="#F2F2F2" stroke-width="2"/>
</g>
<defs>
<clipPath id="clip0">
<rect width="216" height="216" fill="white"/>
</clipPath>
</defs>
</svg>
