<svg width="216" height="216" viewBox="0 0 216 216" fill="none" xmlns="http://www.w3.org/2000/svg">
<g clip-path="url(#clip0)">
<path d="M52.93 32.9243C52.3877 28.1846 55.2332 23.7111 59.7558 22.1931V22.1931C91.0604 11.6857 124.94 11.6857 156.244 22.1931V22.1931C160.767 23.7111 163.612 28.1846 163.07 32.9243L144.779 192.794C144.309 196.897 141.366 200.29 137.37 201.333L133.259 202.406C116.697 206.729 99.3027 206.729 82.7406 202.406L78.6303 201.333C74.6342 200.29 71.6905 196.897 71.2211 192.794L52.93 32.9243Z" stroke="white" stroke-width="2"/>
<path d="M66.5 151V151C77.6044 193.812 138.396 193.812 149.5 151V151" stroke="white" stroke-width="2"/>
<path d="M163 33C163 44.8741 138.376 49 108 49C77.6243 49 53 44.8741 53 33" stroke="white" stroke-width="2"/>
<mask id="mask0" mask-type="alpha" maskUnits="userSpaceOnUse" x="62" y="52" width="92" height="123">
<path d="M62 52C92.3127 58.5897 123.687 58.5897 154 52L142.984 146.557C142.342 152.062 140.084 157.254 136.495 161.477C121.561 179.046 94.4393 179.046 79.5051 161.477C75.9156 157.254 73.6577 152.062 73.0163 146.557L62 52Z" fill="#C4C4C4"/>
</mask>
<g mask="url(#mask0)">
<path d="M33 150H172V175H33V150Z" fill="#79CCF8"/>
<path d="M34 125H173V150H34V125Z" fill="#C9F8DC"/>
<path d="M33 100H172V125H33V100Z" fill="#F5E0A9"/>
<mask id="mask1" mask-type="alpha" maskUnits="userSpaceOnUse" x="53" y="34" width="108" height="66">
<rect x="53" y="34" width="108" height="66" fill="#64D78E"/>
</mask>
<g mask="url(#mask1)">
<rect x="53" y="34" width="108" height="66" fill="#64D78E"/>
<circle opacity="0.5" cx="145.5" cy="90.5" r="1.5" fill="white"/>
<circle opacity="0.5" cx="98.5" cy="83.5" r="1.5" fill="white"/>
<circle opacity="0.5" cx="94.5" cy="61.5" r="1.5" fill="white"/>
<circle opacity="0.5" cx="81.5" cy="74.5" r="1.5" fill="white"/>
<circle opacity="0.5" cx="125.5" cy="56.5" r="1.5" fill="white"/>
<circle opacity="0.5" cx="152" cy="55" r="2" fill="white"/>
<circle opacity="0.5" cx="112" cy="71" r="2" fill="white"/>
<circle opacity="0.5" cx="128" cy="81" r="2" fill="white"/>
<circle opacity="0.5" cx="116" cy="93" r="3" fill="white"/>
<circle opacity="0.5" cx="65" cy="61" r="3" fill="white"/>
<circle opacity="0.5" cx="76" cy="90" r="3" fill="white"/>
<circle opacity="0.5" cx="140" cy="69" r="3" fill="white"/>
</g>
</g>
</g>
<defs>
<clipPath id="clip0">
<rect width="216" height="216" fill="white"/>
</clipPath>
</defs>
</svg>
