<svg width="216" height="216" viewBox="0 0 216 216" fill="none" xmlns="http://www.w3.org/2000/svg">
<g clip-path="url(#clip0)">
<path d="M52.93 32.9243C52.3877 28.1846 55.2332 23.7111 59.7558 22.1931V22.1931C91.0604 11.6857 124.94 11.6857 156.244 22.1931V22.1931C160.767 23.7111 163.612 28.1846 163.07 32.9243L144.779 192.794C144.309 196.897 141.366 200.29 137.37 201.333L133.259 202.406C116.697 206.729 99.3027 206.729 82.7406 202.406L78.6303 201.333C74.6342 200.29 71.6905 196.897 71.2211 192.794L52.93 32.9243Z" stroke="white" stroke-width="2"/>
<path d="M66.5 151V151C77.6044 193.812 138.396 193.812 149.5 151V151" stroke="white" stroke-width="2"/>
<path d="M163 33C163 44.8741 138.376 49 108 49C77.6243 49 53 44.8741 53 33" stroke="white" stroke-width="2"/>
<mask id="mask0" mask-type="alpha" maskUnits="userSpaceOnUse" x="62" y="52" width="92" height="123">
<path d="M62 52C92.3127 58.5897 123.687 58.5897 154 52L142.984 146.557C142.342 152.062 140.084 157.254 136.495 161.477C121.561 179.046 94.4393 179.046 79.5051 161.477C75.9156 157.254 73.6577 152.062 73.0163 146.557L62 52Z" fill="#C4C4C4"/>
</mask>
<g mask="url(#mask0)">
<path d="M39.7319 51H178.732V110H39.7319V51Z" fill="#D0E5F0"/>
<path d="M39.7319 143H178.732V179H39.7319V143Z" fill="#F79166"/>
<path d="M39.7319 111H178.732V147H39.7319V111Z" fill="#A72A2A"/>
<mask id="mask1" mask-type="alpha" maskUnits="userSpaceOnUse" x="51" y="73" width="109" height="41">
<rect x="51.7319" y="73" width="108" height="41" fill="#E9E88D"/>
</mask>
<g mask="url(#mask1)">
<rect x="51.7319" y="73" width="108" height="41" fill="#E9E88D"/>
<path d="M129.212 9L21.7319 116.48" stroke="#F19859" stroke-width="2"/>
<path d="M171.639 51.4263L64.1584 158.907" stroke="#F19859" stroke-width="2"/>
<path d="M143.354 23.1421L35.874 130.622" stroke="#F19859" stroke-width="2"/>
<path d="M185.781 65.5686L78.3005 173.049" stroke="#F19859" stroke-width="2"/>
<path d="M157.497 37.2844L50.0164 144.765" stroke="#F19859" stroke-width="2"/>
<path d="M199.923 79.7107L92.4426 187.191" stroke="#F19859" stroke-width="2"/>
<path d="M92.4426 16L199.923 123.48" stroke="#F19859" stroke-width="2"/>
<path d="M50.0161 58.4263L157.496 165.907" stroke="#F19859" stroke-width="2"/>
<path d="M78.3005 30.1421L185.781 137.622" stroke="#F19859" stroke-width="2"/>
<path d="M35.874 72.5686L143.354 180.049" stroke="#F19859" stroke-width="2"/>
<path d="M64.1582 44.2842L171.638 151.764" stroke="#F19859" stroke-width="2"/>
<path d="M21.7319 86.7107L129.212 194.191" stroke="#F19859" stroke-width="2"/>
</g>
</g>
<g clip-path="url(#clip1)">
<path d="M82.3942 19.3536C87.9487 25.6258 75.7366 34.1211 62.0924 46.2041C48.4481 58.2871 38.5384 69.3822 32.9839 63.11C20.8243 49.3792 22.0279 28.4531 35.6722 16.3701C49.3165 4.2871 70.2346 5.62285 82.3942 19.3536Z" fill="#F0933E"/>
<path d="M75.3361 18.9254C80.8906 25.1976 68.6785 33.6929 55.0343 45.7759C41.39 57.8589 31.4803 68.954 25.9258 62.6818C13.7662 48.951 14.9698 28.0249 28.6141 15.9419C42.2584 3.85888 63.1765 5.19463 75.3361 18.9254Z" stroke="#F2F2F2" stroke-width="2"/>
<path d="M24.1185 32.605L46.6513 40.92C48.1604 41.4769 49.6761 40.115 49.2831 38.5552L43.4541 15.4151C43.2968 14.7906 42.6548 14.4193 42.035 14.5943C33.7817 16.9248 27.0115 22.8388 23.5929 30.704L23.4485 31.0362C23.1798 31.6545 23.486 32.3716 24.1185 32.605Z" stroke="#F2F2F2" stroke-width="2"/>
<path d="M47.1104 14.8395L53.2497 36.3203C53.6636 37.7688 55.4697 38.2569 56.557 37.2142L71.4888 22.8939C71.9553 22.4465 71.9581 21.7016 71.495 21.2507C65.3529 15.2712 56.8501 12.3663 48.3334 13.3379L48.0965 13.3649C47.3828 13.4463 46.913 14.1489 47.1104 14.8395Z" stroke="#F2F2F2" stroke-width="2"/>
<path d="M29.7006 59.8955L44.4255 47.8268C45.6704 46.8064 45.2613 44.8084 43.7156 44.3593L23.8714 38.5949C23.4812 38.4816 23.0712 38.6964 22.9421 39.0816C20.979 44.9414 21.9996 51.3906 25.6763 56.3579L28.1525 59.7033C28.5187 60.1981 29.2245 60.2857 29.7006 59.8955Z" stroke="#F2F2F2" stroke-width="2"/>
</g>
</g>
<defs>
<clipPath id="clip0">
<rect width="216" height="216" fill="white"/>
</clipPath>
<clipPath id="clip1">
<rect width="74" height="50" fill="white" transform="translate(1 39.0603) rotate(-41.5272)"/>
</clipPath>
</defs>
</svg>
