<svg width="216" height="216" viewBox="0 0 216 216" fill="none" xmlns="http://www.w3.org/2000/svg">
<g clip-path="url(#clip0)">
<path d="M52.93 32.9243C52.3877 28.1846 55.2332 23.7111 59.7558 22.1931V22.1931C91.0604 11.6857 124.94 11.6857 156.244 22.1931V22.1931C160.767 23.7111 163.612 28.1846 163.07 32.9243L144.779 192.794C144.309 196.897 141.366 200.29 137.37 201.333L133.259 202.406C116.697 206.729 99.3027 206.729 82.7406 202.406L78.6303 201.333C74.6342 200.29 71.6905 196.897 71.2211 192.794L52.93 32.9243Z" stroke="white" stroke-width="2"/>
<path d="M66.5 151V151C77.6044 193.812 138.396 193.812 149.5 151V151" stroke="white" stroke-width="2"/>
<path d="M163 33C163 44.8741 138.376 49 108 49C77.6243 49 53 44.8741 53 33" stroke="white" stroke-width="2"/>
<mask id="mask0" mask-type="alpha" maskUnits="userSpaceOnUse" x="62" y="52" width="92" height="123">
<path d="M62 52C92.3127 58.5897 123.687 58.5897 154 52L142.984 146.557C142.342 152.062 140.084 157.254 136.495 161.477C121.561 179.046 94.4393 179.046 79.5051 161.477C75.9156 157.254 73.6577 152.062 73.0163 146.557L62 52Z" fill="#C4C4C4"/>
</mask>
<g mask="url(#mask0)">
<path d="M39.7319 51H178.732V110H39.7319V51Z" fill="#D0E5F0"/>
<path d="M38 109H177V151H38V109Z" fill="#A72A2A"/>
<path d="M38 139H177V179H38V139Z" fill="#F69166"/>
<mask id="mask1" mask-type="alpha" maskUnits="userSpaceOnUse" x="51" y="49" width="109" height="62">
<rect x="51.7319" y="49" width="108" height="62" fill="#E9E88D"/>
</mask>
<g mask="url(#mask1)">
<rect x="51.7319" y="49" width="108" height="62" fill="#E9E88D"/>
<path d="M129.212 -5L21.7319 102.48" stroke="#F19859" stroke-width="2"/>
<path d="M171.639 37.4263L64.1584 144.907" stroke="#F19859" stroke-width="2"/>
<path d="M143.354 9.14209L35.874 116.622" stroke="#F19859" stroke-width="2"/>
<path d="M185.781 51.5686L78.3005 159.049" stroke="#F19859" stroke-width="2"/>
<path d="M157.497 23.2842L50.0164 130.764" stroke="#F19859" stroke-width="2"/>
<path d="M199.923 65.7107L92.4426 173.191" stroke="#F19859" stroke-width="2"/>
<path d="M92.4426 2L199.923 109.48" stroke="#F19859" stroke-width="2"/>
<path d="M50.0161 44.4263L157.496 151.907" stroke="#F19859" stroke-width="2"/>
<path d="M78.3005 16.1421L185.781 123.622" stroke="#F19859" stroke-width="2"/>
<path d="M35.874 58.5686L143.354 166.049" stroke="#F19859" stroke-width="2"/>
<path d="M64.1582 30.2842L171.638 137.764" stroke="#F19859" stroke-width="2"/>
<path d="M21.7319 72.7107L129.212 180.191" stroke="#F19859" stroke-width="2"/>
</g>
</g>
<g clip-path="url(#clip1)">
<path d="M119.143 136.447C128.471 143.339 131.642 154.868 126.226 162.197C120.811 169.526 108.859 169.879 99.5313 162.987C90.2038 156.094 81.4343 135.314 84.4058 131.293C87.3774 127.272 109.816 129.554 119.143 136.447Z" fill="#228C46"/>
<path d="M120.086 128.44C129.161 135.146 131.921 146.077 126.96 152.792C121.998 159.506 110.738 160.077 101.663 153.371C97.2028 150.075 92.7655 143.341 89.8039 136.838C88.3308 133.603 87.2505 130.485 86.7199 127.956C86.4543 126.69 86.3335 125.604 86.357 124.743C86.3812 123.857 86.5551 123.337 86.7474 123.077C86.9398 122.816 87.3856 122.497 88.226 122.214C89.0425 121.939 90.1155 121.735 91.4039 121.618C93.9769 121.382 97.2746 121.499 100.799 121.958C107.886 122.879 115.626 125.144 120.086 128.44Z" stroke="#F2F2F2" stroke-width="2"/>
<path d="M87.1497 123.374L92.7965 126.418C105.544 133.291 117.083 142.2 126.96 152.791V152.791" stroke="#F2F2F2" stroke-width="2"/>
<path d="M100.402 130.679L96.5372 121.607" stroke="#F2F2F2" stroke-width="2"/>
<path d="M108.339 135.923V135.923C107.653 132.938 106.635 130.038 105.302 127.28L102.638 121.764" stroke="#F2F2F2" stroke-width="2"/>
<path d="M116.592 143.265V143.265C116.067 139.16 115.057 135.132 113.583 131.265L110.855 124.105" stroke="#F2F2F2" stroke-width="2"/>
<path d="M123.235 149.418V149.418C123.442 144.925 123.112 140.423 122.251 136.008L120.891 129.034" stroke="#F2F2F2" stroke-width="2"/>
<path d="M100.804 130.977V130.977C96.6208 131.605 92.3816 131.773 88.1619 131.478L88.0071 131.468" stroke="#F2F2F2" stroke-width="2"/>
<path d="M108.846 136.92V136.92C103.998 138.475 98.9066 139.13 93.8228 138.853L90.1581 138.653" stroke="#F2F2F2" stroke-width="2"/>
<path d="M117.291 143.16V143.16C112.07 144.864 106.617 145.748 101.126 145.782L94.8093 145.82" stroke="#F2F2F2" stroke-width="2"/>
<path d="M123.83 148.614V148.614C119.298 150.532 114.559 151.916 109.708 152.738L102.467 153.966" stroke="#F2F2F2" stroke-width="2"/>
</g>
</g>
<defs>
<clipPath id="clip0">
<rect width="216" height="216" fill="white"/>
</clipPath>
<clipPath id="clip1">
<rect width="56" height="73" fill="white" transform="translate(69.7319 118.363) rotate(-23.5371)"/>
</clipPath>
</defs>
</svg>
