<svg width="50" height="50" viewBox="0 0 50 50" fill="none" xmlns="http://www.w3.org/2000/svg">
<path d="M33.8235 21.5036C39.5381 27.2314 40.5224 35.5146 36.022 40.0047C31.5215 44.4947 23.2406 43.4913 17.526 37.7635C11.8113 32.0357 7.9309 16.7874 10.4002 14.3238C12.8695 11.8601 28.1088 15.7757 33.8235 21.5036Z" fill="#228C46"/>
<path d="M35.0955 16.2926C40.5883 21.798 41.2556 29.4287 37.2957 33.3795C33.3357 37.3303 25.7066 36.6453 20.2139 31.1399C17.5353 28.4552 15.1951 23.4061 13.8359 18.6286C13.1615 16.2579 12.7471 14.0172 12.6466 12.2461C12.5963 11.3588 12.6268 10.6229 12.7273 10.0625C12.8323 9.47737 12.9911 9.20951 13.0865 9.11438C13.1818 9.01925 13.4501 8.86099 14.0355 8.75741C14.5961 8.65821 15.332 8.62935 16.2193 8.68175C17.9901 8.78631 20.2298 9.20585 22.599 9.88577C27.3733 11.2559 32.417 13.6078 35.0955 16.2926Z" stroke="#F2F2F2" stroke-width="2"/>
<path d="M13.1193 9.14728L16.6966 11.8367C24.772 17.9079 31.8021 25.2568 37.5092 33.5935V33.5935" stroke="#F2F2F2" stroke-width="2"/>
<path d="M24.7163 18.4767V18.4767C24.6631 16.7253 24.4077 14.9859 23.9551 13.2931L23.0804 10.0218" stroke="#F2F2F2" stroke-width="2"/>
<path d="M31.3519 25.9403V25.9403C31.4182 23.0541 31.1421 20.1701 30.5292 17.3489L29.3946 12.1258" stroke="#F2F2F2" stroke-width="2"/>
<path d="M35.2925 30.8778V30.8778C35.9042 27.8001 36.146 24.6604 36.0128 21.5253L35.8023 16.5729" stroke="#F2F2F2" stroke-width="2"/>
<path d="M22.8544 16.8945V16.8945C20.1635 17.3661 17.409 17.3411 14.7271 16.8206L12.8536 16.4571" stroke="#F2F2F2" stroke-width="2"/>
<path d="M29.5186 23.4463V23.4463C26.2232 24.0248 22.8581 24.0893 19.543 23.6374L15.7778 23.1241" stroke="#F2F2F2" stroke-width="2"/>
<path d="M35.1441 29.3535V29.3535C31.8184 30.2037 28.405 30.6639 24.9728 30.7248L19.8503 30.8157" stroke="#F2F2F2" stroke-width="2"/>
</svg>
