<svg width="50" height="50" viewBox="0 0 50 50" fill="none" xmlns="http://www.w3.org/2000/svg">
<path fill-rule="evenodd" clip-rule="evenodd" d="M34.7713 33.7237C38.1456 26.8956 35.8246 18.7099 29.6404 14.4018C29.8781 13.2391 29.2015 12.0621 28.0445 11.6999C27.1419 11.4173 26.1968 11.7087 25.6026 12.3683C18.3636 9.93069 10.3176 13.0529 6.90727 19.954C3.52412 26.8001 5.86624 35.0109 12.0871 39.3098C11.7503 40.5225 12.4348 41.7922 13.6447 42.171C14.6125 42.474 15.6293 42.117 16.2097 41.3538C23.4139 43.7084 31.3819 40.5823 34.7713 33.7237Z" fill="#A9E447"/>
<path d="M37.0495 11.0464L36.0698 10.8461L35.938 11.4908L36.4779 11.867L37.0495 11.0464ZM42.1804 30.3683L43.077 30.8113L43.077 30.8113L42.1804 30.3683ZM33.0118 9.01288L32.6927 9.9606L33.3152 10.1702L33.7548 9.68216L33.0118 9.01288ZM14.3164 16.5986L15.2129 17.0417L14.3164 16.5986ZM19.4962 35.9544L20.4598 36.222L20.6502 35.5363L20.0647 35.1317L19.4962 35.9544ZM23.6188 37.9984L23.9295 37.0479L23.2535 36.8269L22.8229 37.393L23.6188 37.9984ZM36.4779 11.867C42.2749 15.9052 44.429 23.5608 41.2839 29.9252L43.077 30.8113C46.6804 23.5195 44.1926 14.8037 37.6211 10.2259L36.4779 11.867ZM35.1548 9.29877C35.8174 9.50619 36.2058 10.1808 36.0698 10.8461L38.0293 11.2467C38.3687 9.58659 37.404 7.90719 35.7524 7.39012L35.1548 9.29877ZM33.7548 9.68216C34.0969 9.30232 34.639 9.13728 35.1548 9.29877L35.7524 7.39012C34.463 6.98646 33.1149 7.40429 32.2688 8.34361L33.7548 9.68216ZM15.2129 17.0417C18.3917 10.6092 25.9067 7.67555 32.6927 9.9606L33.3309 8.06517C25.6388 5.47501 17.0619 8.78574 13.4199 16.1556L15.2129 17.0417ZM20.0647 35.1317C14.2334 31.102 12.0595 23.4228 15.2129 17.0417L13.4199 16.1556C9.807 23.4666 12.3174 32.209 18.9277 36.7771L20.0647 35.1317ZM21.3526 37.8612C20.6594 37.6442 20.2669 36.9164 20.4598 36.222L18.5327 35.6868C18.0519 37.4177 19.0285 39.2293 20.7551 39.7699L21.3526 37.8612ZM22.8229 37.393C22.4893 37.8316 21.9058 38.0344 21.3526 37.8612L20.7551 39.7699C22.1376 40.2027 23.5875 39.6915 24.4148 38.6038L22.8229 37.393ZM41.2839 29.9252C38.1247 36.3181 30.6827 39.2551 23.9295 37.0479L23.3082 38.9489C30.9634 41.451 39.4574 38.1358 43.077 30.8113L41.2839 29.9252Z" fill="#F2F2F2"/>
<circle cx="37.4091" cy="20" r="1" fill="#F2F2F2"/>
<circle cx="39.4091" cy="24" r="1" fill="#F2F2F2"/>
<circle cx="39.4091" cy="28" r="1" fill="#F2F2F2"/>
</svg>
