<svg width="50" height="50" viewBox="0 0 50 50" fill="none" xmlns="http://www.w3.org/2000/svg">
<path d="M20.1884 10C6.45484 22.6792 -0.869728 45.4004 20.1884 44.9946C41.2465 44.5889 32.7775 22.172 20.1884 10Z" fill="#C9F8DC"/>
<path d="M26.9454 38.5002C21.8633 38.5972 18.7199 37.3087 16.9356 35.3605C15.1528 33.4139 14.5349 30.5985 14.9685 27.2146C15.8105 20.644 20.5702 12.4722 26.9486 6.38332C32.809 12.239 37.5627 20.213 38.536 26.7473C39.0386 30.1216 38.5161 32.9648 36.8075 34.9817C35.1004 36.9968 32.0263 38.4032 26.9454 38.5002Z" stroke="#F2F2F2" stroke-width="2"/>
<path d="M33.7493 23.8898V23.8898C34.5418 25.9963 34.9439 28.2389 34.9368 30.5129L34.9365 30.6102" stroke="#F2F2F2" stroke-width="2"/>
</svg>
