<svg width="50" height="50" viewBox="0 0 50 50" fill="none" xmlns="http://www.w3.org/2000/svg">
<path d="M10.9608 17.8381L20.4974 12.1867C21.7353 11.4532 23.2718 11.441 24.5211 12.1549L34.4846 17.8483C35.7309 18.5605 36.5 19.8859 36.5 21.3213V32.1787C36.5 33.6141 35.7309 34.9395 34.4846 35.6517L24.5211 41.3451C23.2718 42.059 21.7353 42.0468 20.4974 41.3133L10.9608 35.6619C9.74533 34.9417 9 33.6336 9 32.2208V21.2792C9 19.8664 9.74533 18.5583 10.9608 17.8381Z" fill="#AADBDB"/>
<path d="M25.6399 7V38.5" stroke="#F2F2F2" stroke-width="2"/>
<path d="M21.6399 9L25.6399 13" stroke="#F2F2F2" stroke-width="2"/>
<path d="M21.6399 9L25.6399 13" stroke="#F2F2F2" stroke-width="2"/>
<path d="M29.6399 9L25.6399 13" stroke="#F2F2F2" stroke-width="2"/>
<path d="M21.6399 36L25.6399 32" stroke="#F2F2F2" stroke-width="2"/>
<path d="M29.6399 36L25.6399 32" stroke="#F2F2F2" stroke-width="2"/>
<path d="M39.2798 14.875L12 30.625" stroke="#F2F2F2" stroke-width="2"/>
<path d="M35.5478 12.4109L34.0837 17.875" stroke="#F2F2F2" stroke-width="2"/>
<path d="M35.5478 12.4109L34.0837 17.875" stroke="#F2F2F2" stroke-width="2"/>
<path d="M39.5478 19.3391L34.0837 17.875" stroke="#F2F2F2" stroke-width="2"/>
<path d="M12.1651 25.9109L17.6292 27.375" stroke="#F2F2F2" stroke-width="2"/>
<path d="M16.1651 32.8391L17.6292 27.375" stroke="#F2F2F2" stroke-width="2"/>
<path d="M12 14.875L39.2798 30.625" stroke="#F2F2F2" stroke-width="2"/>
<path d="M11.7321 19.3391L17.1962 17.875" stroke="#F2F2F2" stroke-width="2"/>
<path d="M11.7321 19.3391L17.1962 17.875" stroke="#F2F2F2" stroke-width="2"/>
<path d="M15.7321 12.4109L17.1962 17.875" stroke="#F2F2F2" stroke-width="2"/>
<path d="M35.1147 32.8391L33.6506 27.375" stroke="#F2F2F2" stroke-width="2"/>
<path d="M39.1147 25.9109L33.6506 27.375" stroke="#F2F2F2" stroke-width="2"/>
</svg>
