<svg width="50" height="50" viewBox="0 0 50 50" fill="none" xmlns="http://www.w3.org/2000/svg">
<path fill-rule="evenodd" clip-rule="evenodd" d="M31.3108 14.3126C31.2892 14.3817 31.2646 14.449 31.2374 14.5145C35.2827 18.1886 36.1105 25.3884 32.8845 31.9166C29.6407 38.4807 23.3678 42.2014 17.9718 41.1625C17.4797 42.2019 16.2844 42.7462 15.1557 42.3928C13.921 42.0063 13.2335 40.6921 13.62 39.4574C13.6554 39.3444 13.6985 39.236 13.7487 39.1326C9.5159 35.5218 8.60022 28.1823 11.8834 21.5384C15.1879 14.8517 21.6357 11.1155 27.0978 12.3558C27.6519 11.4829 28.7414 11.0536 29.7751 11.3772C31.0098 11.7637 31.6973 13.078 31.3108 14.3126Z" fill="#ECEB53"/>
<path d="M38.112 10.8928L37.1886 10.509L36.9182 11.1594L37.4397 11.6331L38.112 10.8928ZM39.6455 27.0948L38.749 26.6517L39.6455 27.0948ZM25.7613 35.703L25.9504 34.721L25.1892 34.5745L24.8575 35.2751L25.7613 35.703ZM21.8294 33.8131L22.7292 34.2494L23.0664 33.5539L22.4784 33.0523L21.8294 33.8131ZM20.0928 17.4323L19.1963 16.9893L20.0928 17.4323ZM34.2579 8.88299L34.0364 9.85817L34.7242 10.0143L35.1022 9.41891L34.2579 8.88299ZM39.0354 11.2767C39.0724 11.1878 39.1055 11.0968 39.1347 11.0036L37.226 10.4061C37.2149 10.4415 37.2024 10.4758 37.1886 10.509L39.0354 11.2767ZM40.542 27.5378C43.6754 21.1972 42.9823 13.9654 38.7844 10.1526L37.4397 11.6331C40.7743 14.6618 41.6227 20.8365 38.749 26.6517L40.542 27.5378ZM25.5722 36.685C31.1749 37.7637 37.392 33.9122 40.542 27.5378L38.749 26.6517C35.8589 32.5001 30.3954 35.5769 25.9504 34.721L25.5722 36.685ZM24.8575 35.2751C24.6098 35.7983 24.0064 36.0721 23.4381 35.8942L22.8406 37.8029C24.3742 38.283 25.9965 37.5432 26.6651 36.1309L24.8575 35.2751ZM23.4381 35.8942C22.8157 35.6994 22.4691 35.0368 22.6639 34.4143L20.7553 33.8168C20.2304 35.4934 21.164 37.278 22.8406 37.8029L23.4381 35.8942ZM22.6639 34.4143C22.6821 34.3564 22.704 34.3014 22.7292 34.2494L20.9296 33.3768C20.8614 33.5174 20.803 33.6643 20.7553 33.8168L22.6639 34.4143ZM19.1963 16.9893C16.0092 23.4387 16.7803 30.8204 21.1804 34.5739L22.4784 33.0523C18.9968 30.0824 18.0628 23.7974 20.9893 17.8754L19.1963 16.9893ZM34.4793 7.90782C28.7977 6.61763 22.4033 10.4997 19.1963 16.9893L20.9893 17.8754C23.9354 11.9137 29.5473 8.83877 34.0364 9.85817L34.4793 7.90782ZM37.0493 7.01756C35.6443 6.57768 34.1658 7.16201 33.4136 8.34708L35.1022 9.41891C35.3817 8.97851 35.932 8.76347 36.4518 8.92621L37.0493 7.01756ZM39.1347 11.0036C39.6595 9.32708 38.7259 7.54245 37.0493 7.01756L36.4518 8.92621C37.0743 9.12108 37.4209 9.78365 37.226 10.4061L39.1347 11.0036Z" fill="#F2F2F2"/>
<circle cx="35.3853" cy="14.5844" r="1" fill="#F2F2F2"/>
<circle cx="37.3853" cy="18.5844" r="1" fill="#F2F2F2"/>
<circle cx="37.3853" cy="22.5844" r="1" fill="#F2F2F2"/>
</svg>
