<svg width="50" height="50" viewBox="0 0 50 50" fill="none" xmlns="http://www.w3.org/2000/svg">
<path d="M38.1782 28.5112C37.3423 36.1979 30.3058 42 22.8058 38.5C15.3058 41 9.50638 33.1706 10.3423 25.484C11.1783 17.7973 16.3058 11 25.8058 14.5C34.8058 12.5 39.0142 20.8246 38.1782 28.5112Z" fill="#F69166"/>
<path d="M24.4937 16C22.8271 19.1667 18.8058 26 21.9937 37.5" stroke="#D16E44" stroke-width="2"/>
<path d="M25.5346 34.2653L25.1735 34.0968L24.7955 34.2228C21.4895 35.3248 18.5696 34.1797 16.5061 31.8244C14.4159 29.4387 13.2532 25.8412 13.6423 22.2635C14.0432 18.5773 15.4636 15.2295 17.7845 13.2253C20.0425 11.2754 23.3038 10.4659 27.766 12.1098L28.0417 12.2114L28.3286 12.1477C32.439 11.2342 35.3433 12.6618 37.1834 15.1406C39.0729 17.6859 39.8873 21.4206 39.4899 25.0746C39.1006 28.6543 37.2697 31.7585 34.7209 33.5546C32.1994 35.3315 28.9452 35.8569 25.5346 34.2653Z" stroke="#F2F2F2" stroke-width="2"/>
</svg>
