<svg width="50" height="50" viewBox="0 0 50 50" fill="none" xmlns="http://www.w3.org/2000/svg">
<g clip-path="url(#clip0)">
<path d="M36.5489 33.0218C34.2619 41.5573 25.4885 46.6226 16.953 44.3355C8.41757 42.0485 3.35225 33.2751 5.63932 24.7396C7.92639 16.2042 18.5115 4.37735 27.047 6.66442C35.5824 8.95149 38.836 24.4864 36.5489 33.0218Z" fill="#EFE8E8"/>
<circle cx="22" cy="29" r="11" fill="#F4D25A"/>
<path d="M43.0848 30.2397C40.9407 38.2417 32.7156 42.9904 24.7136 40.8463C16.7116 38.7022 11.9629 30.4771 14.107 22.4751C15.1931 18.4218 18.2941 13.4871 22.1846 9.85083C26.1161 6.1763 30.5426 4.10294 34.2899 5.10703C38.0373 6.11112 40.8341 10.12 42.4015 15.2679C43.9527 20.3623 44.1709 26.1864 43.0848 30.2397Z" stroke="#F2F2F2" stroke-width="2"/>
</g>
<defs>
<clipPath id="clip0">
<rect width="50" height="50" fill="white"/>
</clipPath>
</defs>
</svg>
