<svg width="50" height="50" viewBox="0 0 50 50" fill="none" xmlns="http://www.w3.org/2000/svg">
<path fill-rule="evenodd" clip-rule="evenodd" d="M22.2641 13.957C22.3793 13.9612 22.476 13.8689 22.4736 13.7537C22.4331 11.8036 22.1062 9.84483 21.1187 9.27416C19.087 8.10015 24.3408 9.50789 24.026 10.6828L24.8734 7.52031C24.9148 7.36576 25.1105 7.32044 25.2115 7.44455C25.9551 8.35844 27.0361 9.9564 26.8103 10.7992C26.5896 11.6226 28.4213 10.1615 29.7145 9.02279C29.8646 8.89068 30.0987 9.03399 30.047 9.22708L29.2797 12.0905C29.2233 12.3011 29.7023 12.0888 30.3659 11.7947C31.4944 11.2945 33.1568 10.5576 33.6282 11.2613C33.6745 11.3303 33.6516 11.4212 33.5902 11.4772C32.9228 12.0871 32.3577 12.601 31.8717 13.0431C30.4739 14.3145 29.7297 14.9914 29.0838 15.6447C28.9918 15.7378 29.0147 15.8926 29.1274 15.959C34.6013 19.1837 37.4892 25.7686 35.7648 32.2043C33.6921 39.9396 25.7412 44.53 18.006 42.4574C10.2707 40.3847 5.68025 32.4338 7.75291 24.6986C9.53513 18.0472 15.6637 13.7211 22.2641 13.957Z" fill="#B81F3B"/>
<path d="M25.8475 8.60759L26.3095 7.72075L26.3095 7.72075L25.8475 8.60759ZM33.982 11.3049L34.9479 11.5637L33.982 11.3049ZM35.0359 11.1048L34.7147 10.1578L34.7147 10.1578L35.0359 11.1048ZM36.5681 12.2099L35.9637 11.4132L35.9637 11.4132L36.5681 12.2099ZM34.4488 13.8405L33.8224 13.061L34.4488 13.8405ZM34.4707 14.1678L35.0021 13.3207L34.4707 14.1678ZM34.2889 8.75793L33.6979 7.95127L34.2889 8.75793ZM34.6067 8.97352L33.6408 8.7147L34.6067 8.97352ZM38.1893 10.7686L37.4604 11.4532L38.1893 10.7686ZM38.152 11.0061L37.5458 10.2108L38.152 11.0061ZM29.4512 7.3368L30.4171 7.59562L29.4512 7.3368ZM29.7792 7.24849L30.4965 6.55174L29.7792 7.24849ZM27.302 11.7289L26.3101 11.8562L27.302 11.7289ZM27.0968 11.9521L27.1209 10.9524L27.0968 11.9521ZM25.3854 9.49443C25.5234 9.56636 25.7192 9.75952 25.9091 10.2061C26.094 10.6411 26.2273 11.2107 26.3101 11.8562L28.2939 11.6016C28.1985 10.8583 28.0331 10.0905 27.7496 9.42365C27.4711 8.76849 27.0287 8.09545 26.3095 7.72075L25.3854 9.49443ZM29.7286 10.1652C29.8911 9.55862 29.5728 9.0881 29.3763 8.86632C29.1625 8.62507 28.8865 8.4332 28.6398 8.28652C28.1332 7.98528 27.4944 7.72651 26.9499 7.54594C26.6726 7.45399 26.4026 7.37664 26.166 7.32157C25.9571 7.27294 25.6904 7.22098 25.458 7.22528C25.3936 7.22647 25.2935 7.23221 25.1802 7.25955C25.0874 7.28194 24.8551 7.34842 24.6537 7.56072C24.3933 7.83517 24.3262 8.1983 24.3988 8.50657C24.4554 8.74723 24.5831 8.90653 24.6399 8.97218C24.7629 9.11429 24.9105 9.21579 25.0023 9.27522C25.1124 9.34653 25.2418 9.4196 25.3854 9.49443L26.3095 7.72075C26.1975 7.66237 26.128 7.62149 26.0897 7.59667C26.0331 7.55998 26.0828 7.5832 26.1523 7.66345C26.1823 7.69817 26.2944 7.83064 26.3456 8.0484C26.4128 8.33378 26.3506 8.67794 26.1047 8.93717C25.9177 9.13426 25.7094 9.18927 25.6492 9.20378C25.5686 9.22323 25.51 9.22466 25.495 9.22493C25.4603 9.22558 25.5186 9.22434 25.7125 9.26948C25.8788 9.30819 26.0893 9.36767 26.3204 9.4443C26.7926 9.60089 27.2824 9.80626 27.6177 10.0056C27.6982 10.0535 27.7614 10.0961 27.8086 10.132C27.8318 10.1497 27.8491 10.1643 27.8615 10.1754C27.8675 10.1809 27.872 10.1852 27.8751 10.1882C27.8781 10.1913 27.8795 10.1928 27.8794 10.1927C27.8793 10.1926 27.8775 10.1905 27.8743 10.1864C27.8711 10.1822 27.8662 10.1755 27.8602 10.1662C27.8486 10.1481 27.8302 10.1161 27.8131 10.0703C27.7763 9.97138 27.7507 9.81938 27.7967 9.64754L29.7286 10.1652ZM28.4853 7.07798L27.7967 9.64754L29.7286 10.1652L30.4171 7.59562L28.4853 7.07798ZM32.4677 10.3815C32.5961 9.90234 32.4724 9.44257 32.3524 9.13164C32.2226 8.79506 32.0295 8.46269 31.829 8.16418C31.4258 7.56393 30.9044 6.9717 30.4965 6.55174L29.0619 7.94525C29.4234 8.31746 29.8565 8.81452 30.1688 9.27941C30.3261 9.51347 30.431 9.70763 30.4864 9.85139C30.5518 10.0208 30.5006 9.99517 30.5358 9.86383L32.4677 10.3815ZM33.6979 7.95127C33.0945 8.39334 32.3937 8.87353 31.8842 9.15593C31.5945 9.31648 31.492 9.3407 31.5245 9.3353C31.5455 9.33181 31.6226 9.32011 31.7319 9.33614C31.8458 9.35284 32.0402 9.40765 32.216 9.57845C32.3997 9.75695 32.4673 9.96875 32.4838 10.1214C32.4987 10.2584 32.4749 10.3547 32.4677 10.3815L30.5358 9.86383C30.4923 10.0261 30.3762 10.5794 30.8223 11.0129C31.2247 11.4039 31.7277 11.329 31.8529 11.3082C32.2 11.2504 32.5766 11.0588 32.8538 10.9052C33.4779 10.5593 34.2616 10.0176 34.8799 9.56459L33.6979 7.95127ZM34.9479 11.5637L35.5726 9.23234L33.6408 8.7147L33.0161 11.0461L34.9479 11.5637ZM34.7147 10.1578C34.3732 10.2736 34.1537 10.3468 34.0228 10.3776C33.9956 10.384 33.9907 10.384 34.0019 10.3826C34.0038 10.3824 34.0711 10.3727 34.1707 10.3861C34.2479 10.3965 34.5432 10.4461 34.771 10.7331C35.0318 11.0616 34.9879 11.4147 34.9479 11.5637L33.0161 11.0461C32.9646 11.2383 32.9249 11.6244 33.2045 11.9766C33.4512 12.2873 33.7799 12.3515 33.9038 12.3682C34.1527 12.4017 34.3892 12.346 34.481 12.3244C34.7289 12.2661 35.0596 12.1527 35.3571 12.0518L34.7147 10.1578ZM38.9182 10.084C38.5554 9.69773 38.0836 9.575 37.7223 9.54013C37.3545 9.50463 36.9738 9.54672 36.6362 9.60874C35.9617 9.73267 35.2325 9.9821 34.7147 10.1578L35.3571 12.0518C35.9067 11.8653 36.493 11.6685 36.9976 11.5758C37.2496 11.5295 37.4246 11.5207 37.5302 11.5309C37.6423 11.5417 37.5619 11.5613 37.4604 11.4532L38.9182 10.084ZM37.1725 13.0066C37.6219 12.6657 38.1438 12.2697 38.7583 11.8013L37.5458 10.2108C36.9334 10.6776 36.4131 11.0723 35.9637 11.4132L37.1725 13.0066ZM35.0751 14.6201C35.5722 14.2207 36.1958 13.7475 37.1725 13.0066L35.9637 11.4132C34.9964 12.147 34.3464 12.64 33.8224 13.061L35.0751 14.6201ZM33.9393 15.0149C38.8284 18.0821 41.37 24.0817 39.7988 29.9455L41.7307 30.4632C43.5355 23.7275 40.614 16.8414 35.0021 13.3207L33.9393 15.0149ZM39.7988 29.9455C37.8691 37.1473 30.4666 41.4212 23.2648 39.4915L22.7471 41.4233C31.0159 43.6389 39.5151 38.7319 41.7307 30.4632L39.7988 29.9455ZM23.2648 39.4915C16.063 37.5618 11.7891 30.1592 13.7188 22.9574L11.787 22.4398C9.57138 30.7085 14.4784 39.2077 22.7471 41.4233L23.2648 39.4915ZM13.7188 22.9574C15.3638 16.8184 20.987 12.805 27.0727 12.9518L27.1209 10.9524C20.1337 10.7838 13.6764 15.3885 11.787 22.4398L13.7188 22.9574ZM33.8224 13.061C33.1582 13.5947 33.2622 14.5901 33.9393 15.0149L35.0021 13.3207C35.445 13.5986 35.5238 14.2596 35.0751 14.6201L33.8224 13.061ZM34.8799 9.56459C34.2879 9.99834 33.4407 9.46142 33.6408 8.7147L35.5726 9.23234C35.8715 8.11702 34.5977 7.29198 33.6979 7.95127L34.8799 9.56459ZM37.4604 11.4532C37.2512 11.2305 37.198 10.9429 37.2408 10.7105C37.2805 10.4951 37.3983 10.3232 37.5458 10.2108L38.7583 11.8013C39.1421 11.5087 39.5196 10.7243 38.9182 10.084L37.4604 11.4532ZM30.4171 7.59562C30.2633 8.1698 29.5169 8.41364 29.0619 7.94525L30.4965 6.55174C29.8291 5.86461 28.718 6.20924 28.4853 7.07798L30.4171 7.59562ZM26.3101 11.8562C26.2443 11.343 26.6583 10.9412 27.1209 10.9524L27.0727 12.9518C27.7797 12.9688 28.3909 12.3574 28.2939 11.6016L26.3101 11.8562Z" fill="#F2F2F2"/>
</svg>
