<svg width="50" height="50" viewBox="0 0 50 50" fill="none" xmlns="http://www.w3.org/2000/svg">
<ellipse cx="23.0332" cy="28.3297" rx="11.7797" ry="15.3136" transform="rotate(-18.5166 23.0332 28.3297)" fill="#F1CA3F"/>
<path d="M37.9668 21.3723C39.2458 25.1912 39.2004 29.0129 38.1371 32.0919C37.0742 35.1695 35.0202 37.4543 32.2908 38.3684C29.5614 39.2825 26.5457 38.6957 23.8436 36.879C21.1404 35.0615 18.8024 32.038 17.5234 28.2192C16.2444 24.4004 16.2898 20.5786 17.3531 17.4997C18.416 14.422 20.47 12.1372 23.1994 11.2231C25.9287 10.309 28.9445 10.8958 31.6466 12.7125C34.3498 14.53 36.6878 17.5535 37.9668 21.3723Z" stroke="#F2F2F2" stroke-width="2"/>
<path d="M18.5534 4.00762C17.4648 6.47744 16.8801 10.0121 21.5763 10.3964C24.2572 6.52151 21.1534 4.73217 18.5534 4.00762Z" stroke="#F2F2F2" stroke-width="2"/>
<path d="M27.5963 4.05946C24.9794 4.72016 21.8327 6.43298 24.4179 10.3723C29.1221 10.1031 28.6241 6.55521 27.5963 4.05946Z" stroke="#F2F2F2" stroke-width="2"/>
<path d="M13.1928 11.2262C14.6827 13.4768 17.3409 15.8788 20.2019 12.1349C18.3902 7.78526 15.2074 9.43002 13.1928 11.2262Z" stroke="#F2F2F2" stroke-width="2"/>
<path d="M17.7783 27.293L29.7783 12.293" stroke="#F2F2F2" stroke-width="2"/>
<path d="M35.7783 17.293L16.7783 18.293" stroke="#F2F2F2" stroke-width="2"/>
<path d="M38.7783 25.293L16.7783 26.293" stroke="#F2F2F2" stroke-width="2"/>
<path d="M37.7783 33.293L20.7783 35.293" stroke="#F2F2F2" stroke-width="2"/>
<path d="M20.7783 35.293L36.7783 17.293" stroke="#F2F2F2" stroke-width="2"/>
<path d="M26.7783 38.293L38.7783 25.293" stroke="#F2F2F2" stroke-width="2"/>
</svg>
