<svg width="50" height="50" viewBox="0 0 50 50" fill="none" xmlns="http://www.w3.org/2000/svg">
<path d="M34.7713 33.7236C31.0457 41.2627 21.7879 44.2919 14.0935 40.4895C6.39907 36.6871 3.18169 27.4931 6.90729 19.954C10.6329 12.4149 19.8907 9.38576 27.5851 13.1881C35.2795 16.9905 38.4969 26.1846 34.7713 33.7236Z" fill="#F0933E"/>
<path d="M21.5026 37.1341L21.9457 36.2376L21.5026 37.1341ZM34.9942 9.83273L35.4372 8.93622L34.9942 9.83273ZM41.2839 29.9252C37.8115 36.952 29.1623 39.8039 21.9457 36.2376L21.0596 38.0306C29.2318 42.0691 39.0982 38.8626 43.0769 30.8113L41.2839 29.9252ZM21.9457 36.2376C14.729 32.6713 11.7405 24.0684 15.2129 17.0416L13.4199 16.1556C9.44115 24.2069 12.8874 33.9921 21.0596 38.0306L21.9457 36.2376ZM15.2129 17.0416C18.6854 10.0148 27.3345 7.16297 34.5512 10.7292L35.4372 8.93622C27.265 4.89773 17.3987 8.10422 13.4199 16.1556L15.2129 17.0416ZM34.5512 10.7292C41.7678 14.2955 44.7564 22.8984 41.2839 29.9252L43.0769 30.8113C47.0557 22.7599 43.6095 12.9747 35.4372 8.93622L34.5512 10.7292Z" fill="#F2F2F2"/>
<circle cx="37" cy="16" r="1" fill="#F2F2F2"/>
<circle cx="34" cy="19" r="1" fill="#F2F2F2"/>
<circle cx="40" cy="21" r="1" fill="#F2F2F2"/>
<circle cx="36" cy="25" r="1" fill="#F2F2F2"/>
<circle cx="33" cy="13" r="1" fill="#F2F2F2"/>
<circle cx="28" cy="35" r="1" fill="#F2F2F2"/>
<circle cx="33" cy="35" r="1" fill="#F2F2F2"/>
<circle cx="32" cy="30" r="1" fill="#F2F2F2"/>
<circle cx="37" cy="31" r="1" fill="#F2F2F2"/>
<circle cx="40" cy="27" r="1" fill="#F2F2F2"/>
</svg>
