<svg width="50" height="50" viewBox="0 0 50 50" fill="none" xmlns="http://www.w3.org/2000/svg">
<ellipse cx="20.8393" cy="26.8389" rx="15.5403" ry="15.2265" transform="rotate(26.2973 20.8393 26.8389)" fill="#1F8A30"/>
<ellipse opacity="0.4" cx="20.8393" cy="26.8388" rx="12.767" ry="12.5092" transform="rotate(26.2973 20.8393 26.8388)" fill="#F2F2F2"/>
<path d="M22 22C22 22.5523 20.5523 23 20 23C19.4477 23 19 22.5523 19 22C19 21.4477 19.4477 21 20 21C20.5523 21 22 21.4477 22 22Z" fill="#F2F2F2"/>
<path d="M23.8284 17.8284C23.4379 18.219 22.0976 17.5118 21.7071 17.1213C21.3166 16.7308 21.3166 16.0976 21.7071 15.7071C22.0976 15.3166 22.7308 15.3166 23.1213 15.7071C23.5118 16.0976 24.2189 17.4379 23.8284 17.8284Z" fill="#F2F2F2"/>
<path d="M32.7071 25.7071C33.0976 25.3166 34.4379 26.0237 34.8284 26.4142C35.219 26.8047 35.219 27.4379 34.8284 27.8284C34.4379 28.2189 33.8048 28.2189 33.4142 27.8284C33.0237 27.4379 32.3166 26.0976 32.7071 25.7071Z" fill="#F2F2F2"/>
<path d="M32.7071 17.8284C32.3166 17.4379 33.0237 16.0976 33.4142 15.7071C33.8047 15.3166 34.4379 15.3166 34.8284 15.7071C35.2189 16.0976 35.2189 16.7308 34.8284 17.1213C34.4379 17.5118 33.0976 18.2189 32.7071 17.8284Z" fill="#F2F2F2"/>
<path d="M23.8284 25.7071C24.219 26.0976 23.5118 27.4379 23.1213 27.8284C22.7308 28.219 22.0976 28.219 21.7071 27.8284C21.3166 27.4379 21.3166 26.8048 21.7071 26.4142C22.0976 26.0237 23.4379 25.3166 23.8284 25.7071Z" fill="#F2F2F2"/>
<path d="M28 16C27.4477 16 27 14.5523 27 14C27 13.4477 27.4477 13 28 13C28.5523 13 29 13.4477 29 14C29 14.5523 28.5523 16 28 16Z" fill="#F2F2F2"/>
<path d="M28 28C28.5523 28 29 29.4477 29 30C29 30.5523 28.5523 31 28 31C27.4477 31 27 30.5523 27 30C27 29.4477 27.4477 28 28 28Z" fill="#F2F2F2"/>
<path d="M34 22C34 21.4477 35.4477 21 36 21C36.5523 21 37 21.4477 37 22C37 22.5523 36.5523 23 36 23C35.4477 23 34 22.5523 34 22Z" fill="#F2F2F2"/>
<circle cx="28" cy="22" r="15" stroke="#F2F2F2" stroke-width="2"/>
</svg>
